<svg xmlns="http://www.w3.org/2000/svg" style="display: none;">
  <symbol id="bell" viewBox="0 0 24 24">
    <path d="M12 22a2 2 0 0 0 2-2h-4a2 2 0 0 0 2 2zm6-6V11a6 6 0 1 0-12 0v5l-2 2v1h16v-1l-2-2z" />
  </symbol>
  <symbol id="settings" viewBox="0 0 24 24">
    <path d="M19.14 12.94a7.43 7.43 0 0 0 .05-.94 7.43 7.43 0 0 0-.05-.94l2.03-1.58a.5.5 0 0 0 .12-.64l-1.92-3.32a.5.5 0 0 0-.6-.22l-2.39.96a7.08 7.08 0 0 0-1.63-.94l-.36-2.54a.5.5 0 0 0-.5-.42h-3.84a.5.5 0 0 0-.5.42l-.36 2.54a7.08 7.08 0 0 0-1.63.94l-2.39-.96a.5.5 0 0 0-.6.22L2.7 8.84a.5.5 0 0 0 .12.64l2.03 1.58a7.43 7.43 0 0 0-.05.94c0 .32.02.63.05.94l-2.03 1.58a.5.5 0 0 0-.12.64l1.92 3.32a.5.5 0 0 0 .6.22l2.39-.96c.5.39 1.05.71 1.63.94l.36 2.54a.5.5 0 0 0 .5.42h3.84a.5.5 0 0 0 .5-.42l.36-2.54c.58-.23 1.13-.55 1.63-.94l2.39.96a.5.5 0 0 0 .6-.22l1.92-3.32a.5.5 0 0 0-.12-.64l-2.03-1.58zM12 15.5A3.5 3.5 0 1 1 12 8a3.5 3.5 0 0 1 0 7.5z" />
  </symbol>
  <symbol id="download" viewBox="0 0 24 24">
    <path d="M5 20h14v-2H5v2zm7-18l-5 5h3v6h4V7h3l-5-5z" />
  </symbol>
  <symbol id="filter" viewBox="0 0 24 24">
    <path d="M10 18h4v-2h-4v2zm-7-8v2h18v-2H3zm3-6v2h12V4H6z" />
  </symbol>
  <symbol id="close" viewBox="0 0 24 24">
    <path d="M18.3 5.7 12 12l6.3 6.3-1.4 1.4L10.6 13.4 4.3 19.7 2.9 18.3 9.2 12 2.9 5.7 4.3 4.3 10.6 10.6 16.9 4.3z" />
  </symbol>
</svg>
