<svg xmlns="http://www.w3.org/2000/svg" style="display: none;">
  <symbol id="bell" viewBox="0 0 24 24">
    <path d="M12 22a2 2 0 0 0 2-2h-4a2 2 0 0 0 2 2zm6-6V11a6 6 0 1 0-12 0v5l-2 2v1h16v-1l-2-2z" />
  </symbol>
  <symbol id="settings" viewBox="0 0 24 24">
    <path d="M19.14 12.94a7.43 7.43 0 0 0 .05-.94 7.43 7.43 0 0 0-.05-.94l2.03-1.58a.5.5 0 0 0 .12-.64l-1.92-3.32a.5.5 0 0 0-.6-.22l-2.39.96a7.08 7.08 0 0 0-1.63-.94l-.36-2.54a.5.5 0 0 0-.5-.42h-3.84a.5.5 0 0 0-.5.42l-.36 2.54a7.08 7.08 0 0 0-1.63.94l-2.39-.96a.5.5 0 0 0-.6.22L2.7 8.84a.5.5 0 0 0 .12.64l2.03 1.58a7.43 7.43 0 0 0-.05.94c0 .32.02.63.05.94l-2.03 1.58a.5.5 0 0 0-.12.64l1.92 3.32a.5.5 0 0 0 .6.22l2.39-.96c.5.39 1.05.71 1.63.94l.36 2.54a.5.5 0 0 0 .5.42h3.84a.5.5 0 0 0 .5-.42l.36-2.54c.58-.23 1.13-.55 1.63-.94l2.39.96a.5.5 0 0 0 .6-.22l1.92-3.32a.5.5 0 0 0-.12-.64l-2.03-1.58zM12 15.5A3.5 3.5 0 1 1 12 8a3.5 3.5 0 0 1 0 7.5z" />
  </symbol>
  <symbol id="download" viewBox="0 0 24 24">
    <path d="M5 20h14v-2H5v2zm7-18l-5 5h3v6h4V7h3l-5-5z" />
  </symbol>
  <symbol id="filter" viewBox="0 0 24 24">
    <path d="M10 18h4v-2h-4v2zm-7-8v2h18v-2H3zm3-6v2h12V4H6z" />
  </symbol>
  <symbol id="close" viewBox="0 0 24 24">
    <path d="M18.3 5.7 12 12l6.3 6.3-1.4 1.4L10.6 13.4 4.3 19.7 2.9 18.3 9.2 12 2.9 5.7 4.3 4.3 10.6 10.6 16.9 4.3z" />
  </symbol>
  <symbol id="eye" viewBox="0 0 24 24">
    <path d="M12 5c-5.5 0-9.5 4.1-10 7 0 .3.2.6.5.7 1.8.9 5.1 2.3 9.5 2.3 4.4 0 7.7-1.4 9.5-2.3.3-.1.5-.4.5-.7-.5-2.9-4.5-7-10-7zm0 9a4 4 0 1 1 0-8 4 4 0 0 1 0 8zm0-2.5a1.5 1.5 0 1 0 0-3 1.5 1.5 0 0 0 0 3z" />
  </symbol>
  <symbol id="eye-off" viewBox="0 0 24 24">
    <path d="M3.3 4.7 2 6l4 4c-1.8 1.2-3 2.7-3.5 4.2-.1.3.1.6.4.7 1.8.9 5.1 2.3 9.5 2.3 2.2 0 4.1-.4 5.6-.9l2.5 2.5 1.3-1.3-19.5-19.5zM12 15c-1 0-2-.2-2.9-.5l1.7-1.7c.3.1.7.2 1.2.2 1.7 0 3-1.3 3-3 0-.4-.1-.8-.2-1.2l1.7-1.7c.3.9.5 1.9.5 2.9 0 2.8-2.2 5-5 5zm0-9c1 0 2 .2 2.9.5l-1.7 1.7c-.3-.1-.7-.2-1.2-.2-1.7 0-3 1.3-3 3 0 .4.1.8.2 1.2l-1.7 1.7c-.3-.9-.5-1.9-.5-2.9 0-2.8 2.2-5 5-5zm8.2 6c-.4-1-1.1-2-2.1-3l-1.4 1.4c.7.6 1.2 1.3 1.5 2-.7.3-1.8.8-3.2 1.2l-1.6-1.6c.4-.6.6-1.4.6-2.2 0-.5-.1-1-.2-1.5l3.1-3.1c1.4 1.1 2.5 2.5 3.3 3.8z" />
  </symbol>
</svg>
